<?xml version="1.0" standalone="no"?>
<!DOCTYPE svg PUBLIC "-//W3C//DTD SVG 20010904//EN"
 "http://www.w3.org/TR/2001/REC-SVG-20010904/DTD/svg10.dtd">
<svg version="1.0" xmlns="http://www.w3.org/2000/svg"
 width="200.000000pt" height="200.000000pt" viewBox="0 0 200.000000 200.000000"
 preserveAspectRatio="xMidYMid meet">

<g transform="translate(0.000000,200.000000) scale(0.100000,-0.100000)"
fill="#000000" stroke="none">
<path d="M330 1548 c-15 -21 -17 -28 -6 -19 16 13 41 51 33 51 -2 0 -14 -15
-27 -32z"/>
<path d="M280 1540 c-6 -11 -7 -20 -3 -20 4 0 -3 -7 -15 -16 -26 -18 -55 -71
-47 -85 4 -5 1 -8 -6 -7 -18 4 -74 -138 -94 -241 -21 -103 -16 -303 10 -401
85 -321 349 -576 671 -651 81 -19 114 -21 237 -16 158 6 229 22 354 81 118 56
261 165 246 189 -3 5 -2 7 4 4 20 -13 140 143 127 165 -4 7 -3 8 4 4 7 -4 18
8 29 31 9 21 19 43 22 48 2 6 -3 4 -12 -4 -10 -7 -17 -19 -17 -27 0 -18 -17
-27 -26 -13 -5 8 -3 9 6 4 10 -6 12 -4 7 8 -3 9 -2 17 4 19 5 2 12 17 14 33 4
23 -2 17 -28 -30 -23 -41 -30 -64 -24 -73 7 -9 5 -11 -8 -5 -15 5 -17 3 -12
-11 4 -9 3 -15 -2 -12 -4 3 -30 -22 -57 -56 -103 -128 -287 -244 -459 -288
-111 -29 -280 -29 -399 -1 -344 82 -599 361 -652 714 -22 146 0 321 55 450 12
27 18 54 14 59 -3 7 -1 8 5 4 11 -6 16 6 13 27 0 4 3 7 9 7 5 0 14 10 21 21 8
17 8 20 -1 14 -8 -5 -11 -3 -8 6 3 8 10 14 16 14 6 0 17 7 24 15 11 12 11 12
-4 1 -15 -11 -17 -10 -15 8 1 12 4 21 7 21 4 0 7 7 7 15 0 20 -4 19 -17 -5z
m-24 -69 c0 -11 -4 -17 -8 -15 -4 3 -8 0 -8 -7 0 -7 -3 -10 -6 -7 -5 5 12 48
19 48 2 0 3 -9 3 -19z"/>
<path d="M908 1295 c-118 -43 -208 -154 -208 -255 0 -52 12 -75 53 -97 28 -16
63 -18 300 -18 l268 0 39 85 c58 131 122 274 127 288 8 18 -527 16 -579 -3z"/>
<path d="M698 868 c-57 -23 -95 -45 -91 -51 3 -6 1 -7 -6 -3 -10 6 -293 -104
-310 -120 -2 -2 133 -3 300 -2 167 1 283 3 257 5 -27 2 -48 8 -48 14 0 5 -6 9
-14 9 -14 0 -31 67 -27 108 1 15 -4 22 -16 22 -14 0 -13 3 6 21 12 11 28 19
35 16 7 -3 13 1 13 9 0 8 -1 14 -1 13 -1 0 -45 -18 -98 -41z"/>
<path d="M1826 665 c-9 -26 -7 -32 5 -12 6 10 9 21 6 23 -2 3 -7 -2 -11 -11z"/>
</g>
</svg>
